<svg id="visual" viewBox="0 0 900 600" width="900" height="600" xmlns="http://www.w3.org/2000/svg" xmlns:xlink="http://www.w3.org/1999/xlink" version="1.1"><rect x="0" y="0" width="900" height="600" fill="#002233"></rect><path d="M0 386L21.5 404C43 422 86 458 128.8 461C171.7 464 214.3 434 257.2 423.5C300 413 343 422 385.8 440.7C428.7 459.3 471.3 487.7 514.2 502.8C557 518 600 520 642.8 497.7C685.7 475.3 728.3 428.7 771.2 414.8C814 401 857 420 878.5 429.5L900 439L900 601L878.5 601C857 601 814 601 771.2 601C728.3 601 685.7 601 642.8 601C600 601 557 601 514.2 601C471.3 601 428.7 601 385.8 601C343 601 300 601 257.2 601C214.3 601 171.7 601 128.8 601C86 601 43 601 21.5 601L0 601Z" fill="#0066FF" stroke-linecap="round" stroke-linejoin="miter"></path></svg>